<svg width="500" height="500" viewBox="0 0 500 500" fill="none" xmlns="http://www.w3.org/2000/svg">
<path d="M214.125 180.917H88.8752C85.1842 180.917 81.6445 182.383 79.0346 184.993C76.4247 187.603 74.9585 191.142 74.9585 194.833V278.333C74.9585 282.024 76.4247 285.564 79.0346 288.174C81.6445 290.784 85.1842 292.25 88.8752 292.25H102.792V264.417H200.209V292.25H214.125C217.816 292.25 221.356 290.784 223.966 288.174C226.576 285.564 228.042 282.024 228.042 278.333V194.833C228.042 191.142 226.576 187.603 223.966 184.993C221.356 182.383 217.816 180.917 214.125 180.917ZM186.292 250.5H172.375V229.625H130.625V250.5H116.709V229.625C116.709 225.934 118.175 222.394 120.785 219.784C123.394 217.175 126.934 215.708 130.625 215.708H172.375C176.066 215.708 179.606 217.175 182.216 219.784C184.826 222.394 186.292 225.934 186.292 229.625V250.5ZM116.709 278.333V302.688L123.667 327.042L137.584 313.125L151.5 327.042L165.417 313.125L179.334 327.042L186.292 302.688V278.333H116.709Z" fill="black"/>
<path d="M410.125 180.917H284.875C281.184 180.917 277.644 182.383 275.035 184.993C272.425 187.603 270.958 191.142 270.958 194.833V278.333C270.958 282.024 272.425 285.564 275.035 288.174C277.644 290.784 281.184 292.25 284.875 292.25H298.792V264.417H396.209V292.25H410.125C413.816 292.25 417.356 290.784 419.966 288.174C422.576 285.564 424.042 282.024 424.042 278.333V194.833C424.042 191.142 422.576 187.603 419.966 184.993C417.356 182.383 413.816 180.917 410.125 180.917ZM382.292 250.5H368.375V229.625H326.625V250.5H312.709V229.625C312.709 225.934 314.175 222.394 316.785 219.784C319.394 217.175 322.934 215.708 326.625 215.708H368.375C372.066 215.708 375.606 217.175 378.216 219.784C380.826 222.394 382.292 225.934 382.292 229.625V250.5ZM312.709 278.333V302.688L319.667 327.042L333.584 313.125L347.5 327.042L361.417 313.125L375.334 327.042L382.292 302.688V278.333H312.709Z" fill="black"/>
</svg>
