<svg width="500" height="500" viewBox="0 0 500 500" fill="none" xmlns="http://www.w3.org/2000/svg">
<path d="M214.125 180.917H88.8752C85.1842 180.917 81.6445 182.383 79.0346 184.993C76.4247 187.603 74.9585 191.142 74.9585 194.833V278.333C74.9585 282.024 76.4247 285.564 79.0346 288.174C81.6445 290.784 85.1842 292.25 88.8752 292.25H102.792V264.417H200.209V292.25H214.125C217.816 292.25 221.356 290.784 223.966 288.174C226.576 285.564 228.042 282.024 228.042 278.333V194.833C228.042 191.142 226.576 187.603 223.966 184.993C221.356 182.383 217.816 180.917 214.125 180.917ZM186.292 250.5H172.375V229.625H130.625V250.5H116.709V229.625C116.709 225.934 118.175 222.394 120.785 219.784C123.394 217.175 126.934 215.708 130.625 215.708H172.375C176.066 215.708 179.606 217.175 182.216 219.784C184.826 222.394 186.292 225.934 186.292 229.625V250.5ZM116.709 278.333V302.688L123.667 327.042L137.584 313.125L151.5 327.042L165.417 313.125L179.334 327.042L186.292 302.688V278.333H116.709Z" fill="black"/>
<path d="M280.044 303C278.22 303 276.78 302.52 275.724 301.56C274.668 300.6 273.948 299.496 273.564 298.248L246.492 206.376L246.348 205.368C246.348 204.504 246.636 203.784 247.212 203.208C247.884 202.536 248.652 202.2 249.516 202.2H276.3C278.124 202.2 279.564 202.68 280.62 203.64C281.676 204.6 282.396 205.704 282.78 206.952L296.46 260.52L310.14 206.952C310.524 205.704 311.244 204.6 312.3 203.64C313.356 202.68 314.796 202.2 316.62 202.2H343.404C344.268 202.2 344.988 202.536 345.564 203.208C346.236 203.784 346.572 204.504 346.572 205.368L346.428 206.376L319.356 298.248C318.972 299.496 318.252 300.6 317.196 301.56C316.14 302.52 314.7 303 312.876 303H280.044ZM355.35 303C354.294 303 353.382 302.616 352.614 301.848C351.846 301.08 351.462 300.168 351.462 299.112V284.136C351.462 280.68 352.662 278.088 355.062 276.36L356.646 275.208L362.118 271.32C372.87 263.544 380.79 257.688 385.878 253.752C391.062 249.72 395.094 246.12 397.974 242.952C400.854 239.688 402.294 236.808 402.294 234.312C402.294 232.488 401.958 231.096 401.286 230.136C400.71 229.08 399.318 228.552 397.11 228.552C395.286 228.552 393.846 228.984 392.79 229.848C391.734 230.616 391.014 231.384 390.63 232.152C390.342 232.92 389.862 234.168 389.19 235.896C388.71 237.144 387.99 238.008 387.03 238.488C386.07 238.968 384.87 239.208 383.43 239.208H356.358C355.494 239.208 354.726 238.92 354.054 238.344C353.478 237.672 353.19 236.904 353.19 236.04C353.286 228.936 355.254 222.696 359.094 217.32C362.934 211.848 368.118 207.624 374.646 204.648C381.27 201.672 388.71 200.184 396.966 200.184C410.214 200.184 420.678 203.064 428.358 208.824C436.134 214.488 440.022 222.36 440.022 232.44C440.022 239.832 437.43 246.6 432.246 252.744C427.158 258.792 419.382 265.416 408.918 272.616L407.91 273.336H438.294C439.35 273.336 440.262 273.72 441.03 274.488C441.798 275.256 442.182 276.168 442.182 277.224V299.112C442.182 300.168 441.798 301.08 441.03 301.848C440.262 302.616 439.35 303 438.294 303H355.35Z" fill="black"/>
</svg>
