<svg width="642" height="514" viewBox="0 0 642 514" fill="none" xmlns="http://www.w3.org/2000/svg">
<path fill-rule="evenodd" clip-rule="evenodd" d="M182.796 152L55.9631 40.4C50.8349 35.8833 44.4425 33.0519 37.6516 32.2892C30.8606 31.5266 23.9994 32.8696 17.9971 36.1363C11.9949 39.4029 7.14165 44.4355 4.0948 50.5523C1.04794 56.669 -0.0453145 63.5745 0.963112 70.3333L51.7298 413.667H591.497L641.497 68.7666C642.467 62.0452 641.361 55.1877 638.327 49.1121C635.293 43.0365 630.475 38.0325 624.519 34.7699C618.563 31.5073 611.753 30.1418 604.999 30.856C598.246 31.5703 591.872 34.3303 586.73 38.7666L455.797 151.967L347.963 13.4333C344.884 9.47582 340.952 6.26395 336.46 4.03688C331.967 1.80981 327.03 0.624912 322.016 0.570448C317.003 0.515985 312.041 1.59335 307.501 3.72231C302.962 5.85127 298.961 8.97696 295.796 12.8666L182.796 152ZM587.663 447H54.3298V480.333C54.3298 489.174 57.8417 497.652 64.0929 503.904C70.3441 510.155 78.8226 513.667 87.6631 513.667H554.33C563.17 513.667 571.649 510.155 577.9 503.904C584.151 497.652 587.663 489.174 587.663 480.333V447ZM197.193 244.737C198.311 223.817 204.271 203.567 214.461 185.526C241.276 206.382 263.129 232.243 279.126 261.236L205.65 299.5C199.116 282.133 196.19 263.496 197.193 244.737ZM223.298 171.872C252.486 194.325 276.222 222.315 293.504 253.748L312.591 243.808L258.009 138.997C247.327 146.001 237.622 154.528 229.232 164.382C227.161 166.814 225.182 169.312 223.298 171.872ZM212.27 314.325L286.487 275.676C302.343 309.47 310.567 346.861 309.874 385.166C303.013 384.024 296.218 382.348 289.553 380.138C261.442 370.817 237.174 352.515 220.485 328.05C217.424 323.561 214.649 318.912 212.167 314.129L212.27 314.325ZM300.872 268.184C318.151 304.766 327.022 345.329 326.048 386.866C342.916 387.617 359.887 385.204 376.058 379.631C378.109 378.924 380.138 378.169 382.145 377.368L320.077 258.183L300.872 268.184ZM326.572 117C318.836 117.314 311.103 118.295 303.457 119.951C292.518 122.322 281.988 126.026 272.083 130.935L326.966 236.322L355.577 221.423C338.978 189.386 328.922 153.893 326.572 117ZM342.836 117.32C345.198 151.446 354.586 184.27 369.951 213.937L394.071 201.376L422.569 178.138C430.511 171.663 433.303 160.126 427.02 152.03C420.208 143.253 413.566 140.357 401.639 135.158H401.639L401.637 135.157L401.604 135.142C398.056 133.596 394.042 131.845 389.417 129.675C374.659 122.752 358.873 118.604 342.836 117.32ZM336.715 255.043L396.82 370.459C409.635 363.456 421.234 354.418 431.158 343.698C439.267 334.941 436.455 321.379 426.518 314.77L336.715 255.043Z" fill="black"/>
</svg>
