<svg width="500" height="500" viewBox="0 0 500 500" fill="none" xmlns="http://www.w3.org/2000/svg">
<path d="M214.125 180.917H88.8752C85.1842 180.917 81.6445 182.383 79.0346 184.993C76.4247 187.603 74.9585 191.142 74.9585 194.833V278.333C74.9585 282.024 76.4247 285.564 79.0346 288.174C81.6445 290.784 85.1842 292.25 88.8752 292.25H102.792V264.417H200.209V292.25H214.125C217.816 292.25 221.356 290.784 223.966 288.174C226.576 285.564 228.042 282.024 228.042 278.333V194.833C228.042 191.142 226.576 187.603 223.966 184.993C221.356 182.383 217.816 180.917 214.125 180.917ZM186.292 250.5H172.375V229.625H130.625V250.5H116.709V229.625C116.709 225.934 118.175 222.394 120.785 219.784C123.394 217.175 126.934 215.708 130.625 215.708H172.375C176.066 215.708 179.606 217.175 182.216 219.784C184.826 222.394 186.292 225.934 186.292 229.625V250.5ZM116.709 278.333V302.688L123.667 327.042L137.584 313.125L151.5 327.042L165.417 313.125L179.334 327.042L186.292 302.688V278.333H116.709Z" fill="black"/>
<path d="M279.481 303C277.657 303 276.217 302.52 275.161 301.56C274.105 300.6 273.385 299.496 273.001 298.248L245.929 206.376L245.785 205.368C245.785 204.504 246.073 203.784 246.649 203.208C247.321 202.536 248.089 202.2 248.953 202.2H275.737C277.561 202.2 279.001 202.68 280.057 203.64C281.113 204.6 281.833 205.704 282.217 206.952L295.897 260.52L309.577 206.952C309.961 205.704 310.681 204.6 311.737 203.64C312.793 202.68 314.233 202.2 316.057 202.2H342.841C343.705 202.2 344.425 202.536 345.001 203.208C345.673 203.784 346.009 204.504 346.009 205.368L345.865 206.376L318.793 298.248C318.409 299.496 317.689 300.6 316.633 301.56C315.577 302.52 314.137 303 312.313 303H279.481ZM397.06 303C396.004 303 395.092 302.616 394.324 301.848C393.556 301.08 393.172 300.168 393.172 299.112V286.872H350.116C349.06 286.872 348.148 286.488 347.38 285.72C346.612 284.952 346.228 284.04 346.228 282.984V262.392C346.228 260.76 346.756 259.272 347.812 257.928L388.564 204.648C389.908 203.016 391.684 202.2 393.892 202.2H423.844C424.9 202.2 425.812 202.584 426.58 203.352C427.348 204.12 427.732 205.032 427.732 206.088V257.64H440.26C441.412 257.64 442.372 258.024 443.14 258.792C443.908 259.56 444.292 260.472 444.292 261.528V282.984C444.292 284.04 443.908 284.952 443.14 285.72C442.372 286.488 441.46 286.872 440.404 286.872H427.732V299.112C427.732 300.168 427.348 301.08 426.58 301.848C425.812 302.616 424.9 303 423.844 303H397.06ZM394.18 259.224V238.488L379.06 259.224H394.18Z" fill="black"/>
</svg>
