<svg width="500" height="500" viewBox="0 0 500 500" fill="none" xmlns="http://www.w3.org/2000/svg">
<path d="M214.125 180.917H88.8752C85.1842 180.917 81.6445 182.383 79.0346 184.993C76.4247 187.603 74.9585 191.142 74.9585 194.833V278.333C74.9585 282.024 76.4247 285.564 79.0346 288.174C81.6445 290.784 85.1842 292.25 88.8752 292.25H102.792V264.417H200.209V292.25H214.125C217.816 292.25 221.356 290.784 223.966 288.174C226.576 285.564 228.042 282.024 228.042 278.333V194.833C228.042 191.142 226.576 187.603 223.966 184.993C221.356 182.383 217.816 180.917 214.125 180.917ZM186.292 250.5H172.375V229.625H130.625V250.5H116.709V229.625C116.709 225.934 118.175 222.394 120.785 219.784C123.394 217.175 126.934 215.708 130.625 215.708H172.375C176.066 215.708 179.606 217.175 182.216 219.784C184.826 222.394 186.292 225.934 186.292 229.625V250.5ZM116.709 278.333V302.688L123.667 327.042L137.584 313.125L151.5 327.042L165.417 313.125L179.334 327.042L186.292 302.688V278.333H116.709Z" fill="black"/>
<path d="M278.567 303C276.743 303 275.303 302.52 274.247 301.56C273.191 300.6 272.471 299.496 272.087 298.248L245.015 206.376L244.871 205.368C244.871 204.504 245.159 203.784 245.735 203.208C246.407 202.536 247.175 202.2 248.039 202.2H274.823C276.647 202.2 278.087 202.68 279.143 203.64C280.199 204.6 280.919 205.704 281.303 206.952L294.983 260.52L308.663 206.952C309.047 205.704 309.767 204.6 310.823 203.64C311.879 202.68 313.319 202.2 315.143 202.2H341.927C342.791 202.2 343.511 202.536 344.087 203.208C344.759 203.784 345.095 204.504 345.095 205.368L344.951 206.376L317.879 298.248C317.495 299.496 316.775 300.6 315.719 301.56C314.663 302.52 313.223 303 311.399 303H278.567ZM397.307 304.44C386.555 304.44 377.675 302.856 370.667 299.688C363.755 296.424 358.715 292.488 355.547 287.88C352.379 283.272 350.699 278.808 350.507 274.488C350.507 273.624 350.795 272.904 351.371 272.328C352.043 271.656 352.811 271.32 353.675 271.32H382.619C383.771 271.32 384.683 271.512 385.355 271.896C386.027 272.28 386.747 272.856 387.515 273.624C388.475 274.584 389.675 275.304 391.115 275.784C392.555 276.264 394.667 276.504 397.451 276.504C400.619 276.504 402.971 275.784 404.507 274.344C406.139 272.904 406.955 271.08 406.955 268.872C406.955 264.648 403.787 262.536 397.451 262.536H379.451C378.395 262.536 377.483 262.152 376.715 261.384C375.947 260.616 375.563 259.704 375.563 258.648V246.984C375.563 245.64 375.851 244.488 376.427 243.528C377.003 242.472 377.675 241.704 378.443 241.224L398.459 230.28H360.587C359.531 230.28 358.619 229.896 357.851 229.128C357.083 228.36 356.699 227.448 356.699 226.392V206.088C356.699 205.032 357.083 204.12 357.851 203.352C358.619 202.584 359.531 202.2 360.587 202.2H434.315C435.371 202.2 436.283 202.584 437.051 203.352C437.819 204.12 438.203 205.032 438.203 206.088V224.376C438.203 225.624 437.915 226.776 437.339 227.832C436.763 228.792 436.091 229.56 435.323 230.136L418.475 241.368V241.8C435.755 245.928 444.395 255.816 444.395 271.464C444.395 277.992 442.379 283.752 438.347 288.744C434.315 293.736 428.699 297.624 421.499 300.408C414.395 303.096 406.331 304.44 397.307 304.44Z" fill="black"/>
</svg>
