<svg width="500" height="500" viewBox="0 0 500 500" fill="none" xmlns="http://www.w3.org/2000/svg">
<path fill-rule="evenodd" clip-rule="evenodd" d="M193.7 55.0699C188.039 65.0926 184.728 76.3427 184.107 87.965C183.55 98.3865 185.176 108.741 188.805 118.389L229.625 97.1311C220.738 81.0237 208.598 66.6568 193.7 55.0699ZM237.613 92.9714C228.012 75.5081 214.826 59.9581 198.61 47.4843C199.657 46.0623 200.756 44.6743 201.907 43.3231C206.568 37.8491 211.959 33.1114 217.894 29.2206L248.217 87.4491L237.613 92.9714ZM233.715 105.153L192.483 126.625L192.426 126.516C193.805 129.173 195.346 131.756 197.047 134.25C206.319 147.842 219.801 158.01 235.418 163.188C239.121 164.416 242.896 165.346 246.708 165.981C247.093 144.7 242.524 123.928 233.715 105.153ZM255.694 166.926C256.235 143.85 251.306 121.314 241.707 100.991L252.376 95.4348L286.858 161.649C285.743 162.094 284.616 162.513 283.477 162.906C274.493 166.002 265.065 167.343 255.694 166.926ZM243.143 18.6396C247.391 17.7194 251.687 17.1746 255.984 17C257.29 37.4959 262.877 57.2146 272.098 75.0126L256.203 83.2903L225.713 24.7415C231.215 22.0143 237.065 19.9564 243.143 18.6396ZM280.084 70.8537C271.548 54.3725 266.332 36.1369 265.02 17.1776C273.93 17.8911 282.699 20.1954 290.898 24.0417C293.476 25.2512 295.712 26.226 297.687 27.0873L297.688 27.0876H297.688C304.315 29.9763 308.005 31.585 311.789 36.4614C315.28 40.9587 313.729 47.3682 309.316 50.9657L293.484 63.8756L280.084 70.8537ZM295.011 157.811L261.62 93.6908L311.51 126.872C317.031 130.544 318.593 138.078 314.088 142.943C308.574 148.899 302.131 153.92 295.011 157.811Z" fill="#C4C4C4"/>
<path d="M73.856 373C71.744 373 69.92 372.232 68.384 370.696C66.848 369.16 66.08 367.336 66.08 365.224V335.272C66.08 328.36 68.48 323.176 73.28 319.72L76.448 317.416L87.392 309.64C108.896 294.088 124.736 282.376 134.912 274.504C145.28 266.44 153.344 259.24 159.104 252.904C164.864 246.376 167.744 240.616 167.744 235.624C167.744 231.976 167.072 229.192 165.728 227.272C164.576 225.16 161.792 224.104 157.376 224.104C153.728 224.104 150.848 224.968 148.736 226.696C146.624 228.232 145.184 229.768 144.416 231.304C143.84 232.84 142.88 235.336 141.536 238.792C140.576 241.288 139.136 243.016 137.216 243.976C135.296 244.936 132.896 245.416 130.016 245.416H75.872C74.144 245.416 72.608 244.84 71.264 243.688C70.112 242.344 69.536 240.808 69.536 239.08C69.728 224.872 73.664 212.392 81.344 201.64C89.024 190.696 99.392 182.248 112.448 176.296C125.696 170.344 140.576 167.368 157.088 167.368C183.584 167.368 204.512 173.128 219.872 184.648C235.424 195.976 243.2 211.72 243.2 231.88C243.2 246.664 238.016 260.2 227.648 272.488C217.472 284.584 201.92 297.832 180.992 312.232L178.976 313.672H239.744C241.856 313.672 243.68 314.44 245.216 315.976C246.752 317.512 247.52 319.336 247.52 321.448V365.224C247.52 367.336 246.752 369.16 245.216 370.696C243.68 372.232 241.856 373 239.744 373H73.856ZM338.845 373C336.733 373 334.909 372.232 333.373 370.696C331.837 369.16 331.069 367.336 331.069 365.224V248.872L298.813 273.64C297.661 274.6 296.221 275.08 294.493 275.08C291.997 275.08 289.789 273.832 287.869 271.336L262.525 238.504C261.757 236.584 261.373 235.144 261.373 234.184C261.373 232.84 261.661 231.592 262.237 230.44C263.005 229.096 263.965 228.04 265.117 227.272L334.525 173.416C336.445 172.072 338.557 171.4 340.861 171.4H395.293C397.405 171.4 399.229 172.168 400.765 173.704C402.301 175.24 403.069 177.064 403.069 179.176V365.224C403.069 367.336 402.301 369.16 400.765 370.696C399.229 372.232 397.405 373 395.293 373H338.845Z" fill="black"/>
</svg>
