<svg width="500" height="500" viewBox="0 0 500 500" fill="none" xmlns="http://www.w3.org/2000/svg">
<path fill-rule="evenodd" clip-rule="evenodd" d="M163.623 190.625L84.3519 120.875C81.1468 118.052 77.1515 116.282 72.9072 115.806C68.6628 115.329 64.3746 116.168 60.6231 118.21C56.8717 120.252 53.8385 123.397 51.9342 127.22C50.0299 131.043 49.3466 135.359 49.9769 139.583L81.7061 354.167H419.06L450.31 138.604C450.917 134.403 450.225 130.117 448.329 126.32C446.433 122.523 443.422 119.395 439.699 117.356C435.977 115.317 431.72 114.464 427.499 114.91C423.279 115.356 419.295 117.081 416.081 119.854L334.248 190.604L266.852 104.021C264.928 101.547 262.47 99.54 259.662 98.1481C256.854 96.7561 253.769 96.0156 250.635 95.9815C247.502 95.9475 244.401 96.6209 241.563 97.9515C238.726 99.2821 236.225 101.236 234.248 103.667L163.623 190.625ZM416.664 375H83.3311V395.833C83.3311 401.359 85.526 406.658 89.433 410.565C93.34 414.472 98.639 416.667 104.164 416.667H395.831C401.356 416.667 406.655 414.472 410.563 410.565C414.469 406.658 416.664 401.359 416.664 395.833V375ZM111.043 270.386C111.291 265.737 112.616 261.237 114.88 257.228C120.839 261.863 125.695 267.609 129.25 274.052L112.922 282.556C111.47 278.696 110.82 274.555 111.043 270.386ZM116.844 254.194C123.33 259.183 128.605 265.403 132.445 272.389L136.687 270.18L124.558 246.888C122.184 248.445 120.027 250.34 118.163 252.529C117.702 253.07 117.263 253.625 116.844 254.194ZM114.393 285.85L130.886 277.261C134.41 284.771 136.237 293.08 136.083 301.592C134.559 301.339 133.049 300.966 131.567 300.475C125.32 298.404 119.927 294.337 116.219 288.9C115.539 287.903 114.922 286.869 114.371 285.806L114.393 285.85ZM134.083 275.596C137.923 283.726 139.894 292.74 139.677 301.97C143.426 302.137 147.197 301.601 150.791 300.362C151.246 300.205 151.697 300.038 152.143 299.86L138.351 273.374L134.083 275.596ZM139.794 242C138.075 242.07 136.356 242.288 134.657 242.656C132.226 243.183 129.886 244.006 127.685 245.097L139.881 268.516L146.239 265.205C142.551 258.086 140.316 250.198 139.794 242ZM143.408 242.071C143.933 249.655 146.019 256.949 149.434 263.542L154.794 260.75L161.127 255.586C162.891 254.147 163.512 251.583 162.116 249.785C160.602 247.834 159.126 247.191 156.475 246.035L156.475 246.035L156.468 246.032C155.679 245.688 154.787 245.299 153.759 244.817C150.48 243.278 146.972 242.356 143.408 242.071ZM142.048 272.676L155.404 298.324C158.252 296.768 160.83 294.76 163.035 292.377C164.837 290.431 164.212 287.418 162.004 285.949L142.048 272.676ZM231.88 253.228C229.616 257.237 228.291 261.737 228.043 266.386C227.82 270.555 228.47 274.696 229.922 278.556L246.25 270.052C242.695 263.609 237.839 257.863 231.88 253.228ZM249.445 268.389C245.605 261.403 240.33 255.183 233.844 250.194C234.263 249.625 234.702 249.07 235.163 248.529C237.027 246.34 239.184 244.445 241.558 242.888L253.687 266.18L249.445 268.389ZM247.886 273.261L231.393 281.85L231.371 281.806C231.922 282.869 232.539 283.903 233.219 284.9C236.927 290.337 242.32 294.404 248.567 296.475C250.049 296.966 251.559 297.339 253.083 297.592C253.237 289.08 251.41 280.771 247.886 273.261ZM256.677 297.97C256.894 288.74 254.923 279.726 251.083 271.596L255.351 269.374L269.143 295.86C268.697 296.038 268.246 296.205 267.791 296.362C264.197 297.601 260.426 298.137 256.677 297.97ZM251.657 238.656C253.356 238.288 255.075 238.07 256.794 238C257.316 246.198 259.551 254.086 263.239 261.205L256.881 264.516L244.685 241.097C246.886 240.006 249.226 239.183 251.657 238.656ZM266.434 259.542C263.019 252.949 260.933 245.655 260.408 238.071C263.972 238.356 267.48 239.278 270.759 240.817C271.787 241.299 272.679 241.688 273.467 242.031L273.475 242.035L273.475 242.035H273.475C276.126 243.191 277.602 243.834 279.116 245.785C280.512 247.583 279.891 250.147 278.127 251.586L271.794 256.75L266.434 259.542ZM272.404 294.324L259.048 268.676L279.004 281.949C281.212 283.418 281.837 286.431 280.035 288.377C277.83 290.76 275.252 292.768 272.404 294.324ZM345.043 268.386C345.291 263.737 346.616 259.237 348.88 255.228C354.839 259.863 359.695 265.609 363.25 272.052L346.922 280.556C345.47 276.696 344.82 272.555 345.043 268.386ZM350.844 252.194C357.33 257.183 362.605 263.403 366.445 270.389L370.687 268.18L358.558 244.888C356.184 246.445 354.027 248.34 352.163 250.529C351.702 251.07 351.263 251.625 350.844 252.194ZM348.393 283.85L364.886 275.261C368.41 282.771 370.237 291.08 370.083 299.592C368.559 299.339 367.049 298.966 365.567 298.475C359.32 296.404 353.927 292.337 350.219 286.9C349.539 285.903 348.922 284.869 348.371 283.806L348.393 283.85ZM368.083 273.596C371.923 281.726 373.894 290.74 373.677 299.97C377.426 300.137 381.197 299.601 384.791 298.362C385.246 298.205 385.697 298.038 386.143 297.86L372.351 271.374L368.083 273.596ZM373.794 240C372.075 240.07 370.356 240.288 368.657 240.656C366.226 241.183 363.886 242.006 361.685 243.097L373.881 266.516L380.239 263.205C376.551 256.086 374.316 248.198 373.794 240ZM377.408 240.071C377.933 247.655 380.019 254.949 383.434 261.542L388.794 258.75L395.127 253.586C396.891 252.147 397.512 249.583 396.116 247.785C394.602 245.834 393.126 245.191 390.475 244.035L390.475 244.035L390.468 244.032C389.679 243.688 388.787 243.299 387.759 242.817C384.48 241.278 380.972 240.356 377.408 240.071ZM376.048 270.676L389.404 296.324C392.252 294.768 394.83 292.76 397.035 290.377C398.837 288.431 398.212 285.418 396.004 283.949L376.048 270.676Z" fill="black"/>
</svg>
