<svg width="500" height="500" viewBox="0 0 500 500" fill="none" xmlns="http://www.w3.org/2000/svg">
<path fill-rule="evenodd" clip-rule="evenodd" d="M87.8884 157.543C74.0192 182.099 65.9067 209.661 64.385 238.135C63.0205 263.668 67.0034 289.035 75.8957 312.673L175.904 260.592C154.131 221.129 124.387 185.931 87.8884 157.543ZM195.474 250.401C171.952 207.616 139.645 169.519 99.9163 138.959C102.481 135.475 105.174 132.074 107.994 128.764C119.413 115.353 132.622 103.746 147.162 94.2132L221.454 236.871L195.474 250.401ZM185.923 280.246L84.9067 332.851L84.767 332.584C88.1442 339.095 91.9214 345.423 96.0884 351.532C118.803 384.832 151.834 409.743 190.096 422.429C199.169 425.437 208.417 427.718 217.755 429.273C218.698 377.135 207.505 326.243 185.923 280.246ZM239.77 431.587C241.096 375.051 229.021 319.84 205.503 270.049L231.643 256.436L316.123 418.659C313.391 419.749 310.63 420.776 307.838 421.738C285.827 429.323 262.729 432.609 239.77 431.587ZM209.021 68.2902C219.428 66.0356 229.954 64.701 240.482 64.2732C243.682 114.487 257.369 162.798 279.961 206.402L241.019 226.682L166.319 83.2397C179.799 76.5581 194.132 71.5163 209.021 68.2902ZM299.526 196.213C278.612 155.835 265.835 111.158 262.619 64.7083C284.448 66.4563 305.933 72.1018 326.02 81.525C332.335 84.4882 337.814 86.8765 342.654 88.9868L342.655 88.9875H342.656C358.89 96.0647 367.93 100.006 377.202 111.953C385.754 122.971 381.954 138.674 371.144 147.488L332.355 179.117L299.526 196.213ZM336.096 409.255L254.288 252.163L376.519 333.457C390.044 342.452 393.871 360.911 382.835 372.831C369.327 387.421 353.539 399.723 336.096 409.255Z" fill="white"/>
</svg>
