<svg width="500" height="500" viewBox="0 0 500 500" fill="none" xmlns="http://www.w3.org/2000/svg">
<path fill-rule="evenodd" clip-rule="evenodd" d="M380.467 306.38C376.693 313.062 374.485 320.562 374.071 328.31C373.7 335.258 374.784 342.161 377.204 348.593L404.417 334.421C398.492 323.682 390.399 314.105 380.467 306.38ZM409.742 331.648C403.341 320.005 394.55 309.639 383.74 301.323C384.438 300.375 385.171 299.45 385.938 298.549C389.045 294.899 392.639 291.741 396.596 289.147L416.812 327.966L409.742 331.648ZM407.143 339.769L379.656 354.083L379.618 354.011C380.536 355.782 381.564 357.504 382.698 359.167C388.879 368.228 397.867 375.006 408.279 378.458C410.748 379.277 413.264 379.898 415.805 380.321C416.062 366.134 413.016 352.285 407.143 339.769ZM421.796 380.95C422.156 365.566 418.871 350.543 412.471 336.994L419.584 333.29L442.572 377.433C441.829 377.729 441.077 378.009 440.318 378.271C434.328 380.335 428.043 381.229 421.796 380.95ZM413.429 282.093C416.26 281.48 419.125 281.116 421.99 281C422.86 294.664 426.584 307.81 432.732 319.675L422.135 325.194L401.809 286.161C405.477 284.343 409.377 282.971 413.429 282.093ZM438.056 316.902C432.365 305.915 428.888 293.758 428.013 281.118C433.953 281.594 439.8 283.13 445.265 285.694C446.984 286.501 448.475 287.151 449.792 287.725L449.792 287.725H449.792C454.21 289.651 456.67 290.723 459.193 293.974C461.52 296.972 460.486 301.245 457.544 303.644L446.989 312.25L438.056 316.902ZM448.007 374.874L425.746 332.127L459.007 354.248C462.687 356.696 463.728 361.719 460.725 364.962C457.05 368.933 452.754 372.28 448.007 374.874Z" fill="#232323"/>
<path d="M281.04 114.167C303.956 114.167 322.706 95.4166 322.706 72.5C322.706 49.5833 303.956 30.8333 281.04 30.8333C258.123 30.8333 239.373 49.5833 239.373 72.5C239.373 95.4166 258.123 114.167 281.04 114.167ZM206.04 403.75L226.873 312.083L270.623 353.75V457.917C270.623 469.423 279.95 478.75 291.456 478.75V478.75C302.962 478.75 312.29 469.423 312.29 457.917V322.5L268.54 280.833L281.04 218.333C303.967 244.788 337.345 263.777 374.854 268.982C386.251 270.564 395.623 261.089 395.623 249.583V249.583C395.623 238.077 386.209 228.964 374.909 226.797C344.576 220.977 319.705 202.665 306.04 178.75L285.206 145.417C276.873 132.917 264.373 124.583 249.79 124.583C243.54 124.583 239.373 126.667 233.123 126.667L124.79 172.5V249.583C124.79 261.089 134.117 270.417 145.623 270.417V270.417C157.129 270.417 166.456 261.089 166.456 249.583V199.583L203.956 185L170.623 353.75L89.3971 337.173C77.891 334.825 66.6677 342.276 64.3647 353.791V353.791C62.068 365.274 69.5153 376.445 80.9987 378.742L206.04 403.75Z" fill="black"/>
<path d="M111.752 117.832C111.048 117.832 110.44 117.576 109.928 117.064C109.416 116.552 109.16 115.944 109.16 115.24V99.784H94.28C93.576 99.784 92.968 99.528 92.456 99.016C91.944 98.504 91.688 97.896 91.688 97.192V86.728C91.688 86.024 91.944 85.416 92.456 84.904C92.968 84.392 93.576 84.136 94.28 84.136H109.16V69.16C109.16 68.456 109.416 67.848 109.928 67.336C110.44 66.824 111.048 66.568 111.752 66.568H123.464C124.168 66.568 124.776 66.824 125.288 67.336C125.8 67.848 126.056 68.456 126.056 69.16V84.136H140.744C141.448 84.136 142.056 84.392 142.568 84.904C143.08 85.416 143.336 86.024 143.336 86.728V97.192C143.336 97.896 143.08 98.504 142.568 99.016C142.056 99.528 141.448 99.784 140.744 99.784H126.056V115.24C126.056 115.944 125.8 116.552 125.288 117.064C124.776 117.576 124.168 117.832 123.464 117.832H111.752ZM171.001 121C170.297 121 169.689 120.744 169.177 120.232C168.665 119.72 168.409 119.112 168.409 118.408V79.624L157.657 87.88C157.273 88.2 156.793 88.36 156.217 88.36C155.385 88.36 154.649 87.944 154.009 87.112L145.561 76.168C145.305 75.528 145.177 75.048 145.177 74.728C145.177 74.28 145.273 73.864 145.465 73.48C145.721 73.032 146.041 72.68 146.425 72.424L169.561 54.472C170.201 54.024 170.905 53.8 171.673 53.8H189.817C190.521 53.8 191.129 54.056 191.641 54.568C192.153 55.08 192.409 55.688 192.409 56.392V118.408C192.409 119.112 192.153 119.72 191.641 120.232C191.129 120.744 190.521 121 189.817 121H171.001Z" fill="black"/>
</svg>
