<svg width="655" height="683" viewBox="0 0 655 683" fill="none" xmlns="http://www.w3.org/2000/svg">
<path fill-rule="evenodd" clip-rule="evenodd" d="M279.746 350.085C257.342 309.799 225.27 274.717 185.285 248.509L124.926 208.948C103.668 244.345 91.2426 284.583 89.0167 326.233C86.9403 365.087 93.8204 403.665 108.85 439.082L279.746 350.085ZM288.859 367.889L117.389 457.185L117.252 456.922C121.907 465.886 127.111 474.6 132.849 483.012C164.254 529.052 209.922 563.493 262.821 581.032C277.533 585.91 292.578 589.405 307.766 591.519L314.895 519.703C320.159 466.68 310.671 414.382 288.859 367.889ZM327.668 593.495L334.797 521.679C340.453 464.714 330.179 408.531 306.613 358.643L329.574 346.686L446.761 571.712C439.861 574.805 432.804 577.598 425.609 580.078C393.953 590.987 360.669 595.463 327.668 593.495ZM297.491 340.844C273.53 297.577 239.15 259.901 196.249 231.782L135.889 192.221C140.101 186.315 144.577 180.575 149.309 175.019C167.404 153.769 188.747 135.793 212.388 121.659L320.336 328.947L297.491 340.844ZM353.623 149.382C352.065 200.682 364.115 250.374 387.298 294.076L419.335 277.391L500.93 210.857C522.982 192.876 532.303 158.904 510.763 140.314C501.041 131.924 490.003 127.112 473.748 120.025L473.747 120.025L473.747 120.025L473.746 120.024C467.054 117.107 459.479 113.804 450.747 109.708C420.665 95.5953 388.314 87.6113 355.549 85.9659L353.623 149.382ZM338.075 319.709L369.558 303.314C344.823 256.63 331.968 203.561 333.632 148.775L335.547 85.7495C319.97 86.1944 304.384 88.0735 288.988 91.4093C268.402 95.8696 248.586 102.841 229.947 112.078L338.075 319.709ZM464.679 562.818L351.573 345.628L504.465 447.314C532.056 465.665 539.93 503.601 515.634 526.135C500.246 540.406 483.133 552.733 464.679 562.818Z" fill="#0066FF"/>
</svg>
